<?xml version="1.0" standalone="no"?>
<!DOCTYPE svg PUBLIC "-//W3C//DTD SVG 20010904//EN"
 "http://www.w3.org/TR/2001/REC-SVG-20010904/DTD/svg10.dtd">
<svg version="1.0" xmlns="http://www.w3.org/2000/svg"
 width="333" height="288" viewBox="76 82 333 288"
 preserveAspectRatio="xMidYMid meet">

<g transform="translate(0.000000,1024.000000) scale(0.100000,-0.100000)"
fill="#000000" stroke="none">
<path d="M5676 8519 c-36 -42 -36 -100 0 -136 22 -22 31 -24 62 -19 133 25
149 20 172 -51 10 -30 25 -52 40 -60 13 -6 34 -37 50 -75 15 -34 60 -133 98
-218 l71 -155 -71 -135 c-39 -74 -74 -139 -78 -143 -4 -4 -10 20 -13 55 -7 78
-38 179 -68 222 -12 18 -45 49 -72 67 -45 31 -58 34 -132 37 -74 4 -89 1 -159
-28 -104 -44 -180 -114 -231 -215 -33 -65 -39 -87 -43 -158 -3 -66 0 -95 18
-147 25 -74 24 -76 -61 -106 -57 -21 -62 -31 -16 -36 30 -3 27 -5 -33 -27 -93
-34 -98 -45 -18 -37 37 4 76 9 85 12 12 4 10 -1 -7 -15 -39 -32 -119 -55 -188
-55 -53 0 -61 -2 -49 -13 7 -7 40 -19 73 -25 58 -10 93 -5 184 29 8 3 -17 -25
-57 -61 -92 -86 -137 -168 -127 -236 8 -54 23 -88 24 -52 0 13 5 44 11 69 14
54 94 146 160 182 l44 24 -58 -61 c-68 -72 -107 -151 -114 -231 -6 -60 8 -121
31 -140 11 -10 13 0 9 53 -3 35 0 86 6 112 12 48 77 151 88 140 3 -3 1 -11 -5
-18 -5 -7 -18 -41 -27 -76 -18 -71 -11 -133 23 -213 19 -43 19 -52 7 -120 -7
-41 -20 -121 -29 -179 -16 -97 -33 -140 -58 -140 -29 0 -168 -108 -273 -211
-95 -93 -125 -117 -142 -113 -15 4 -22 0 -26 -15 -3 -12 -13 -21 -25 -21 -24
0 -46 -25 -39 -44 3 -8 -6 -24 -19 -37 -62 -58 -126 -181 -144 -277 -7 -40 -4
-53 22 -108 17 -35 37 -69 46 -76 13 -11 14 -9 9 17 -4 17 -10 45 -13 63 l-7
33 31 -30 c30 -30 52 -40 52 -22 0 5 -7 14 -16 22 -23 19 -44 64 -44 94 0 15
12 47 27 73 l28 47 6 -51 c4 -28 12 -61 20 -75 12 -22 14 -17 25 66 6 50 17
112 24 138 11 43 16 48 36 44 17 -3 24 2 29 20 4 18 10 23 25 18 16 -5 20 -2
20 19 0 22 22 38 168 125 93 54 201 125 240 157 90 71 120 129 172 337 l37
148 32 -38 c40 -49 41 -81 1 -94 -34 -12 -36 -16 -15 -46 38 -54 130 -32 166
38 34 67 24 142 -35 257 -25 51 -42 92 -38 92 12 0 90 -107 117 -160 12 -25
28 -69 34 -98 22 -106 -21 -171 -173 -255 -80 -45 -218 -158 -206 -170 5 -6
49 3 150 29 83 21 151 9 259 -46 85 -42 187 -77 197 -67 4 4 1 13 -6 21 -10
13 -1 47 45 186 67 200 84 288 85 426 l0 101 54 68 c30 38 57 80 59 94 9 46
-22 83 -108 126 -44 23 -81 48 -83 56 -2 9 16 63 39 120 87 219 252 675 252
700 0 41 -65 164 -168 320 -80 119 -95 147 -86 161 7 12 8 18 1 18 -5 0 -10
20 -10 45 0 25 -2 45 -5 45 -4 0 -20 -7 -37 -16 -30 -16 -31 -16 -74 27 -41
40 -44 41 -86 34 -97 -18 -123 -14 -96 13 18 18 -3 14 -24 -5 -24 -22 -25 2
-1 37 l16 25 -28 -25 -27 -25 7 25 c4 14 10 31 12 38 8 21 -4 13 -31 -19z
m-51 -659 c-9 -28 10 -56 46 -69 78 -27 169 3 169 56 l1 28 24 -28 c64 -73 -6
-157 -130 -157 -92 0 -156 45 -171 119 -3 16 -2 31 4 35 5 3 12 -12 15 -34 9
-67 56 -100 144 -100 67 0 101 9 126 35 19 18 22 71 7 95 -8 12 -10 11 -10 -6
0 -57 -107 -92 -182 -61 -44 19 -76 70 -57 93 16 20 21 18 14 -6z m241 -187
c1 -30 8 -43 44 -74 l43 -37 -12 -48 c-7 -26 -36 -93 -64 -148 l-52 -100 0
-99 c0 -92 -1 -96 -14 -65 -21 52 -27 190 -8 219 8 13 25 55 37 94 23 75 44
121 66 146 13 14 9 18 -36 37 -44 18 -50 24 -50 50 0 19 8 35 23 45 12 9 22
16 22 16 0 1 0 -16 1 -36z m45 -801 c29 -26 54 -60 65 -88 l17 -45 -25 -26
c-25 -25 -126 -59 -137 -47 -3 4 0 9 7 11 18 7 42 57 42 89 0 40 -59 94 -102
94 -19 0 -43 -7 -54 -15 -31 -23 -35 -18 -18 23 9 20 21 54 26 75 l10 37 60
-32 c33 -18 82 -52 109 -76z m-86 -102 c13 -41 -25 -75 -71 -64 -34 9 -30 19
9 19 26 0 33 4 35 23 2 15 -6 34 -20 49 l-23 26 32 -17 c17 -9 34 -25 38 -36z
m244 -181 c11 -64 -7 -186 -33 -237 -9 -18 -18 -32 -20 -32 -2 0 1 21 6 48 5
26 11 99 12 162 4 140 4 136 16 124 6 -6 14 -35 19 -65z m-104 -476 c-4 -27
-11 -52 -17 -58 -9 -10 -1 80 9 98 11 19 15 3 8 -40z"/>
<path d="M3710 6015 l0 -105 -35 0 c-65 0 -111 -76 -69 -111 24 -20 89 -17
113 5 18 17 21 31 21 113 0 82 2 93 18 93 37 0 62 -29 62 -73 1 -41 1 -42 15
-17 15 26 19 77 9 105 -4 9 -24 25 -45 36 -22 11 -45 28 -51 39 -7 11 -18 20
-25 20 -10 0 -13 -27 -13 -105z"/>
<path d="M5373 5972 c-40 -25 -145 -389 -207 -715 -87 -455 -71 -867 48 -1230
44 -135 138 -351 176 -405 17 -23 30 -47 30 -53 0 -5 -18 -40 -40 -76 -44 -73
-50 -115 -24 -164 12 -25 19 -29 37 -22 12 4 77 8 145 8 67 0 122 2 122 5 0 3
-7 14 -15 24 -22 30 -18 70 15 148 37 85 38 125 5 186 -37 69 -33 94 19 136
80 66 125 178 180 446 39 187 67 268 126 371 46 77 147 190 210 234 22 15 40
34 40 42 0 22 -87 110 -175 177 -261 198 -448 370 -461 422 -15 58 85 187 179
233 65 31 121 37 186 17 41 -12 58 -13 74 -4 21 11 21 11 2 19 -11 4 -29 8
-39 8 -11 1 -46 13 -77 28 -43 20 -63 37 -79 66 -12 21 -24 36 -27 34 -6 -6
24 -64 37 -72 21 -13 8 -22 -39 -28 -95 -11 -207 -91 -252 -179 -24 -47 -36
-48 -44 -4 -17 87 114 211 244 232 38 6 40 8 34 33 -11 46 -23 63 -41 55 -30
-13 -136 -34 -172 -34 -21 0 -61 14 -100 35 -64 35 -94 42 -117 27z m276 -96
c-79 -33 -104 -52 -139 -104 l-30 -45 0 46 c0 65 29 96 106 113 32 7 73 13 89
13 26 0 22 -3 -26 -23z m-321 -186 c-21 -275 -12 -738 23 -1105 18 -194 79
-611 120 -819 35 -180 18 -166 -70 58 -101 257 -157 475 -193 751 -40 310 -9
675 97 1137 14 59 25 110 25 114 0 4 2 5 4 3 3 -2 0 -65 -6 -139z"/>
<path d="M3382 5804 c-22 -15 -22 -18 -22 -311 l0 -295 -22 7 c-34 11 -126 18
-153 11 -100 -25 -145 -176 -73 -244 53 -48 170 -59 228 -19 75 50 75 49 78
337 l3 259 57 -20 c145 -50 200 -132 158 -234 -18 -42 -7 -53 21 -22 36 38 55
89 61 154 10 123 -46 197 -187 252 -80 31 -110 58 -115 104 -4 36 -8 39 -34
21z"/>
<path d="M3000 5630 l0 -130 -50 0 c-42 0 -55 -5 -75 -26 -76 -82 46 -184 132
-110 27 24 28 27 32 150 3 135 4 138 56 114 29 -13 39 -42 33 -93 -5 -48 12
-40 35 16 17 41 18 48 4 81 -12 28 -28 43 -66 62 -28 14 -55 35 -61 46 -6 11
-17 20 -25 20 -12 0 -15 -22 -15 -130z"/>
<path d="M6332 4205 c-223 -82 -363 -354 -292 -565 51 -153 149 -249 303 -300
58 -19 85 -22 175 -18 95 3 114 7 173 36 91 44 165 127 193 220 13 40 -12 23
-33 -23 -30 -67 -102 -138 -172 -170 -56 -25 -70 -27 -148 -23 -168 8 -288 96
-359 265 -132 311 98 651 383 568 98 -28 163 -81 213 -173 l29 -53 16 58 c31
117 34 106 -36 140 -97 49 -158 63 -276 62 -86 0 -118 -5 -169 -24z"/>
<path d="M1598 4191 c28 -28 29 -34 35 -152 11 -191 8 -563 -4 -618 -7 -34
-19 -57 -36 -71 -14 -11 -23 -23 -20 -26 3 -3 43 -2 89 3 74 8 80 11 57 21
-18 7 -32 25 -43 54 -14 37 -16 87 -14 365 l3 321 184 -275 183 -276 18 29 c9
16 86 147 170 292 83 144 156 262 161 262 5 0 9 -160 9 -375 0 -363 -1 -376
-20 -392 -11 -10 -20 -21 -20 -25 0 -10 171 -11 195 -2 14 6 12 10 -12 29
l-28 23 0 394 0 395 30 26 30 26 -86 1 -85 0 -18 -36 c-15 -33 -147 -266 -258
-457 l-40 -68 -50 81 c-27 45 -87 137 -132 205 -44 68 -102 158 -128 200 l-47
75 -76 0 -77 0 30 -29z"/>
<path d="M7032 4138 c-7 -7 -12 -28 -12 -48 0 -20 5 -41 12 -48 7 -7 28 -12
48 -12 43 0 60 15 60 53 0 48 -16 67 -58 67 -21 0 -43 -5 -50 -12z"/>
<path d="M7380 4070 c0 -64 -43 -128 -98 -145 -32 -9 -16 -27 21 -23 l32 3 5
-225 c5 -215 6 -227 30 -274 31 -62 73 -86 149 -86 89 0 151 56 180 164 17 66
-1 63 -25 -4 -37 -102 -97 -149 -165 -127 -54 17 -61 47 -67 308 l-5 239 54 1
c30 1 69 1 87 0 24 -2 32 2 32 14 0 14 -10 16 -57 15 -32 -1 -82 -1 -112 -1
l-55 1 28 29 c28 29 69 128 60 143 -3 5 -25 8 -50 8 l-44 0 0 -40z"/>
<path d="M3450 3906 c-36 -11 -66 -21 -68 -22 -2 -1 6 -12 18 -24 21 -21 21
-27 18 -255 -3 -205 -5 -235 -20 -252 -10 -11 -18 -23 -18 -26 0 -4 41 -7 90
-7 50 0 90 3 90 6 0 4 -8 13 -17 20 -39 28 -11 313 42 442 20 46 48 77 86 92
39 16 84 -2 105 -42 19 -37 32 -161 36 -341 3 -123 1 -139 -14 -148 -37 -21
-16 -29 72 -29 92 0 109 9 73 36 -39 28 -22 297 27 428 50 133 159 140 194 13
8 -29 22 -121 31 -206 28 -269 32 -278 132 -265 54 6 55 7 31 20 -32 16 -36
32 -48 183 -22 272 -66 378 -164 397 -41 7 -105 -10 -139 -36 -31 -24 -67 -96
-82 -165 l-12 -50 -12 69 c-7 38 -21 86 -32 107 -30 60 -101 88 -178 70 -76
-17 -124 -83 -152 -206 l-14 -60 -5 136 -5 135 -65 -20z"/>
<path d="M7060 3906 c-80 -25 -78 -23 -54 -40 18 -14 19 -29 19 -254 0 -214
-2 -242 -17 -259 -10 -11 -18 -23 -18 -26 0 -8 174 -9 182 -1 4 3 -2 14 -13
25 -18 18 -19 36 -20 252 0 127 -4 253 -7 278 l-7 45 -65 -20z"/>
<path d="M2877 3906 c-48 -18 -86 -51 -103 -93 -17 -39 -18 -79 -3 -88 15 -10
19 -2 30 47 18 77 74 118 164 118 46 0 60 -4 80 -25 23 -22 31 -54 25 -95 -4
-33 -35 -50 -129 -71 -53 -12 -119 -32 -148 -46 -96 -45 -145 -130 -123 -214
21 -78 87 -119 192 -119 81 0 138 27 175 84 l28 43 10 -45 c15 -67 45 -85 124
-76 l62 7 -31 18 c-40 25 -47 45 -59 174 -5 59 -11 109 -14 111 -2 2 -26 0
-54 -6 l-50 -11 5 -53 c8 -93 -27 -160 -101 -197 -55 -29 -109 -21 -151 20
-29 29 -31 37 -31 100 0 54 5 76 21 98 28 38 92 69 183 88 150 32 178 49 183
113 3 41 -18 78 -59 103 -44 27 -171 36 -226 15z"/>
<path d="M4665 3905 c-71 -25 -132 -117 -111 -170 7 -18 36 -20 36 -2 0 34 24
89 50 115 80 80 230 47 230 -50 0 -62 -22 -77 -150 -103 -172 -36 -252 -105
-252 -216 1 -97 60 -149 176 -157 56 -3 80 0 107 13 44 23 77 53 97 90 l16 30
8 -50 c11 -77 55 -99 157 -79 36 8 42 24 8 24 -13 0 -31 8 -40 18 -19 20 -37
122 -37 208 0 33 -3 63 -6 66 -3 3 -27 -1 -54 -10 l-48 -15 0 -66 c1 -77 -15
-114 -66 -159 -90 -78 -201 -37 -213 80 -12 115 50 172 230 212 116 25 143 41
153 91 19 105 -149 180 -291 130z"/>
<path d="M7995 3905 c-50 -18 -91 -62 -105 -116 -13 -46 -8 -69 15 -69 10 0
15 9 15 28 0 39 32 93 70 120 25 17 47 22 92 22 52 0 63 -3 89 -29 20 -20 29
-39 29 -61 0 -64 -18 -76 -154 -105 -180 -38 -256 -103 -256 -218 0 -57 32
-105 90 -135 38 -19 57 -23 121 -20 65 3 81 7 113 32 21 16 48 45 60 65 l21
36 7 -48 c3 -27 12 -54 18 -62 17 -20 58 -26 115 -16 48 8 49 8 23 19 -39 16
-48 40 -60 170 -6 64 -12 119 -14 121 -2 2 -25 -2 -52 -9 l-49 -13 5 -47 c5
-60 -11 -112 -51 -156 -54 -63 -106 -77 -172 -50 -54 23 -84 105 -65 176 21
78 92 118 265 150 86 16 125 49 125 105 0 46 -48 98 -105 114 -54 15 -142 13
-190 -4z"/>
<path d="M2810 2796 c0 -105 2 -126 15 -126 12 0 15 13 15 55 l0 55 50 0 c28
0 50 5 50 10 0 6 -23 10 -51 10 l-50 0 3 48 3 47 53 -3 c40 -3 52 -1 52 11 0
11 -17 14 -70 16 l-70 2 0 -125z"/>
<path d="M3050 2905 c0 -8 5 -15 10 -15 6 0 10 7 10 15 0 8 -4 15 -10 15 -5 0
-10 -7 -10 -15z"/>
<path d="M4404 2895 c-14 -22 -14 -27 -1 -55 15 -29 14 -31 -14 -59 -34 -34
-37 -63 -9 -91 24 -24 95 -27 124 -5 16 12 20 12 33 -1 8 -7 24 -14 36 -14 21
1 20 2 -7 24 -24 20 -26 27 -17 44 13 25 14 52 2 52 -5 0 -12 -11 -15 -25 -8
-32 -16 -31 -51 5 l-28 30 26 24 c32 30 35 71 8 86 -34 18 -69 12 -87 -15z
m84 -22 c4 -29 -45 -64 -59 -42 -11 17 -12 53 -2 63 4 4 19 6 33 4 17 -2 26
-10 28 -25z m-17 -124 c36 -46 30 -59 -29 -59 -44 0 -63 37 -38 75 9 14 20 25
25 25 5 0 24 -18 42 -41z"/>
<path d="M4820 2796 l0 -126 60 0 c51 0 64 4 91 28 40 36 50 101 24 156 -22
46 -38 55 -115 63 l-60 6 0 -127z m124 95 c-2 -2 6 -15 16 -29 22 -28 26 -87
9 -125 -14 -30 -48 -47 -94 -47 l-35 0 0 99 c0 70 4 101 13 104 14 6 97 4 91
-2z"/>
<path d="M6900 2874 c0 -40 -2 -45 -17 -39 -44 19 -62 17 -87 -8 -31 -31 -36
-99 -10 -135 17 -25 81 -31 102 -10 9 9 12 9 12 0 0 -7 5 -12 10 -12 6 0 10
48 10 125 0 77 -4 125 -10 125 -5 0 -10 -21 -10 -46z m-22 -60 c17 -12 22 -25
22 -59 0 -37 -4 -47 -26 -62 -30 -19 -50 -11 -73 29 -16 28 -9 68 15 92 19 20
34 20 62 0z"/>
<path d="M7025 2910 c-8 -13 4 -32 16 -25 12 8 12 35 0 35 -6 0 -13 -4 -16
-10z"/>
<path d="M3180 2864 c0 -14 -4 -23 -10 -19 -5 3 -10 2 -10 -4 0 -5 5 -11 10
-13 6 -2 13 -37 18 -78 l7 -75 33 -3 c17 -2 32 1 32 7 0 6 -6 8 -13 5 -25 -9
-38 22 -35 82 3 52 6 59 28 65 l25 7 -27 1 c-23 1 -28 6 -28 26 0 16 -6 25
-15 25 -9 0 -15 -10 -15 -26z"/>
<path d="M6380 2875 c0 -7 -8 -18 -17 -24 -17 -9 -17 -11 -1 -23 13 -10 18
-31 20 -83 l3 -70 33 -3 c19 -2 32 1 32 8 0 7 -6 10 -14 7 -24 -10 -36 16 -36
80 0 62 1 63 28 64 l27 1 -25 7 c-15 4 -26 15 -28 29 -4 24 -22 31 -22 7z"/>
<path d="M2404 2837 l-39 -34 -270 -12 c-148 -7 -271 -13 -273 -15 -1 -2 120
-7 270 -11 l273 -7 40 -39 41 -39 48 49 c42 43 47 51 34 63 -8 7 -30 28 -49
46 l-35 32 -40 -33z"/>
<path d="M7573 2821 l-42 -47 47 -47 47 -47 40 39 40 40 270 7 c305 9 287 18
-55 29 l-215 6 -41 35 c-23 19 -44 34 -46 33 -2 -1 -22 -22 -45 -48z"/>
<path d="M3403 2835 c-24 -10 -33 -11 -36 -2 -9 25 -15 -1 -19 -80 -3 -70 -1
-83 12 -83 12 0 15 8 12 35 -7 59 6 105 34 117 40 19 58 -8 59 -87 0 -45 4
-65 13 -65 8 0 12 21 12 70 0 57 -4 74 -20 90 -23 23 -25 24 -67 5z"/>
<path d="M3613 2826 c-23 -20 -28 -32 -28 -69 0 -63 24 -87 87 -87 32 0 48 4
48 13 0 8 -14 11 -44 9 -41 -4 -46 -1 -60 26 -8 16 -12 32 -9 36 4 3 33 6 65
6 52 0 58 2 58 20 0 27 -43 70 -69 70 -11 0 -33 -11 -48 -24z m81 -18 c21 -29
12 -38 -40 -38 -48 0 -57 15 -28 44 22 22 50 20 68 -6z"/>
<path d="M3842 2834 c-34 -24 -25 -54 26 -82 45 -25 52 -41 26 -63 -12 -10
-22 -10 -45 -2 -23 9 -29 9 -26 0 2 -7 22 -13 44 -15 33 -2 44 1 56 18 23 33
9 60 -39 81 -24 10 -44 22 -44 27 0 18 30 34 55 30 31 -6 33 7 3 16 -31 8 -31
8 -56 -10z"/>
<path d="M4052 2843 c-7 -2 -17 -13 -22 -24 -13 -23 3 -59 25 -59 24 0 66 -43
56 -58 -8 -14 -45 -19 -67 -11 -7 2 -13 0 -13 -6 -1 -5 16 -11 38 -13 72 -6
97 58 34 89 -54 27 -65 39 -51 56 8 10 22 13 45 8 18 -3 33 -2 33 3 0 18 -48
27 -78 15z"/>
<path d="M5123 2840 c-13 -5 -23 -14 -23 -21 0 -7 7 -8 18 -4 38 16 53 17 67
5 24 -20 19 -50 -9 -50 -63 0 -99 -38 -76 -80 9 -18 19 -20 71 -18 l61 2 -4
74 c-3 59 -7 77 -23 88 -21 16 -49 17 -82 4z m77 -110 c0 -44 -44 -65 -74 -35
-19 19 -11 44 18 55 42 17 56 12 56 -20z"/>
<path d="M5330 2820 c-7 -97 -5 -150 8 -150 8 0 12 20 12 65 0 58 2 66 26 82
43 28 58 9 62 -76 2 -54 6 -71 17 -71 12 0 15 14 15 59 0 33 -4 71 -10 85 -12
33 -49 42 -88 22 -28 -15 -31 -14 -35 2 -3 9 -6 1 -7 -18z"/>
<path d="M5603 2840 c-29 -12 -43 -40 -43 -89 0 -57 27 -83 82 -79 24 2 43 9
46 16 3 11 0 12 -17 2 -48 -25 -98 24 -87 85 8 41 35 59 77 50 30 -7 41 8 13
19 -21 8 -44 7 -71 -4z"/>
<path d="M5804 2827 c-24 -21 -29 -33 -29 -70 0 -63 24 -87 87 -87 26 0 48 5
48 10 0 6 -19 10 -43 10 -49 0 -67 13 -67 48 0 23 2 24 60 20 59 -3 60 -2 60
23 0 35 -19 58 -56 65 -24 5 -37 0 -60 -19z m78 -14 c33 -29 22 -43 -32 -43
-54 0 -65 14 -34 44 20 21 43 20 66 -1z"/>
<path d="M6183 2835 c-38 -26 -30 -59 19 -81 50 -22 60 -49 25 -65 -18 -8 -30
-8 -45 0 -20 11 -39 1 -25 -13 12 -12 91 -6 103 8 21 27 7 60 -35 82 -26 13
-40 27 -40 40 0 16 6 19 44 17 46 -2 46 11 1 22 -15 3 -34 0 -47 -10z"/>
<path d="M6540 2772 c0 -47 5 -83 12 -90 15 -15 74 -16 83 -2 3 6 11 10 16 10
6 0 7 -4 4 -10 -3 -5 1 -10 9 -10 22 0 22 166 0 174 -11 4 -14 -8 -14 -62 0
-75 -10 -92 -51 -92 -33 0 -39 14 -39 96 0 36 -4 64 -10 64 -6 0 -10 -33 -10
-78z"/>
<path d="M7032 2841 c-19 -11 -14 -171 5 -171 10 0 13 23 13 90 0 50 -1 90 -2
90 -2 0 -9 -4 -16 -9z"/>
<path d="M7183 2840 c-46 -19 -58 -98 -22 -144 26 -33 88 -37 119 -6 26 26 27
99 3 129 -21 24 -68 35 -100 21z m67 -20 c21 -11 36 -67 26 -98 -4 -10 -18
-24 -32 -31 -42 -19 -74 8 -74 61 0 63 34 92 80 68z"/>
<path d="M3050 2755 c0 -50 4 -85 10 -85 6 0 10 35 10 85 0 50 -4 85 -10 85
-6 0 -10 -35 -10 -85z"/>
</g>
</svg>
